<?xml version="1.0" encoding="iso-8859-1"?>
<!-- Generator: Adobe Illustrator 19.0.0, SVG Export Plug-In . SVG Version: 6.00 Build 0)  -->
<svg version="1.1" id="Layer_1" xmlns="http://www.w3.org/2000/svg" xmlns:xlink="http://www.w3.org/1999/xlink" x="0px" y="0px"
	 viewBox="0 0 504 504" style="enable-background:new 0 0 504 504;" xml:space="preserve">
<circle style="fill:#84DBFF;" cx="252" cy="252" r="252"/>
<path style="fill:#FFFFFF;" d="M183.4,140.5c0-0.1,0-0.1,0-0.1c0-13.3-10.8-24.1-24.1-24.1c-2.2,0-4.2,0.4-6.2,0.9
	c-5.6-7.4-14.5-12.3-24.5-12.3c-17,0-30.7,13.8-30.7,30.7c0,2.1,0.2,4.1,0.6,6.1c-9.3,3.2-16,12-16,22.4c0,13.1,10.6,23.8,23.8,23.8
	H182c13.1,0,23.8-10.6,23.8-23.8C205.7,151.5,195.8,141.2,183.4,140.5z"/>
<path style="fill:#324A5E;" d="M297.7,346.5c0.2-1.7-1-3.3-2.7-3.6c-1.7-0.2-3.3,1-3.6,2.7l-3.7,27c0,0.1,0,0.3,0,0.4h-24v-28.5H257
	V373h-24.1c0-0.1,0-0.3,0-0.4l-3.7-27c-0.2-1.7-1.9-2.9-3.6-2.7c-1.7,0.2-2.9,1.8-2.7,3.6l3.7,27c0,0.1,0,0.1,0.1,0.2l5.7,39.2
	c0.5,3.1,3.1,5.5,6.3,5.5H282c3.2,0,5.9-2.3,6.3-5.5l5.8-39.9H294L297.7,346.5z"/>
<path style="fill:#FF7058;" d="M222.9,346.1h74c33.5-31.2,73.8-105.8,73.8-148.1c0-60.3-48.9-96.6-109.2-96.6S152.3,137.6,152.3,198
	C152.2,240.2,189,314.9,222.9,346.1z"/>
<path style="fill:#FFFFFF;" d="M408,240.6c0-0.1,0-0.1,0-0.2c0-17.5-14.2-31.7-31.7-31.7c-2.8,0-5.6,0.5-8.2,1.2
	c-7.4-9.8-19.1-16.2-32.3-16.2c-22.4,0-40.5,18.1-40.5,40.5c0,2.8,0.3,5.4,0.8,8.1c-12.2,4.3-21.1,15.8-21.1,29.4
	c0,17.3,14,31.3,31.3,31.3H406c17.3,0,31.3-14,31.3-31.3C437.3,255.1,424.3,241.6,408,240.6z"/>
<g>
</g>
<g>
</g>
<g>
</g>
<g>
</g>
<g>
</g>
<g>
</g>
<g>
</g>
<g>
</g>
<g>
</g>
<g>
</g>
<g>
</g>
<g>
</g>
<g>
</g>
<g>
</g>
<g>
</g>
</svg>
