<?xml version="1.0" encoding="iso-8859-1"?>
<!-- Generator: Adobe Illustrator 19.0.0, SVG Export Plug-In . SVG Version: 6.00 Build 0)  -->
<svg version="1.1" id="Layer_1" xmlns="http://www.w3.org/2000/svg" xmlns:xlink="http://www.w3.org/1999/xlink" x="0px" y="0px"
	 viewBox="0 0 504 504" style="enable-background:new 0 0 504 504;" xml:space="preserve">
<circle style="fill:#FD8469;" cx="252" cy="252" r="252"/>
<path style="fill:#84DBFF;" d="M251.8,327.7c21.4,0,38.7,17.3,38.7,38.7v26.9H351c0,0-38.8-63.4-56.8-113h-10.4v-35.7h-6.2
	L263.5,81.4h-9.9h-3.1h-9.9l-14.1,163.4h-6.2v35.7h-10.4c-18,49.5-56.8,113-56.8,113h60.1v-26.9
	C213.1,345.1,230.4,327.7,251.8,327.7z"/>
<g>
	<rect x="286.8" y="393.4" style="fill:#324A5E;" width="71.9" height="11.6"/>
	<rect x="145.3" y="393.4" style="fill:#324A5E;" width="71.9" height="11.6"/>
	<path style="fill:#324A5E;" d="M260.6,67.5h-17.3c-1.6,0-2.8,1.3-2.8,2.8v11h22.9v-11C263.5,68.8,262.2,67.5,260.6,67.5z"/>
	<rect x="214" y="244.8" style="fill:#324A5E;" width="76" height="10.8"/>
	<rect x="200.4" y="280.3" style="fill:#324A5E;" width="103.3" height="10.8"/>
</g>
<g>
</g>
<g>
</g>
<g>
</g>
<g>
</g>
<g>
</g>
<g>
</g>
<g>
</g>
<g>
</g>
<g>
</g>
<g>
</g>
<g>
</g>
<g>
</g>
<g>
</g>
<g>
</g>
<g>
</g>
</svg>
