<?xml version="1.0" encoding="iso-8859-1"?>
<!-- Generator: Adobe Illustrator 19.0.0, SVG Export Plug-In . SVG Version: 6.00 Build 0)  -->
<svg version="1.1" id="Layer_1" xmlns="http://www.w3.org/2000/svg" xmlns:xlink="http://www.w3.org/1999/xlink" x="0px" y="0px"
	 viewBox="0 0 504 504" style="enable-background:new 0 0 504 504;" xml:space="preserve">
<circle style="fill:#FFD05B;" cx="252" cy="252" r="252"/>
<polygon style="fill:#84DBFF;" points="397.2,182.3 262.9,182.3 262.9,120.1 397.2,120.1 427.8,151.2 "/>
<polygon style="fill:#FF7058;" points="397.2,282.5 262.9,282.5 262.9,220.3 397.2,220.3 427.8,251.4 "/>
<polygon style="fill:#4CDBC4;" points="106.8,232.4 237.2,232.4 237.2,170.2 106.8,170.2 76.2,201.3 "/>
<path style="fill:#324A5E;" d="M262.9,417.5V102c5.6-4,9.2-10.5,9.2-17.9c0-12.2-9.9-22.1-22.1-22.1s-22,9.9-22,22.1
	c0,7.4,3.6,13.9,9.2,17.9v315.5H196V442h108.1v-24.5H262.9z"/>
<g>
</g>
<g>
</g>
<g>
</g>
<g>
</g>
<g>
</g>
<g>
</g>
<g>
</g>
<g>
</g>
<g>
</g>
<g>
</g>
<g>
</g>
<g>
</g>
<g>
</g>
<g>
</g>
<g>
</g>
</svg>
