<?xml version="1.0" encoding="iso-8859-1"?>
<!-- Generator: Adobe Illustrator 19.0.0, SVG Export Plug-In . SVG Version: 6.00 Build 0)  -->
<svg version="1.1" id="Layer_1" xmlns="http://www.w3.org/2000/svg" xmlns:xlink="http://www.w3.org/1999/xlink" x="0px" y="0px"
	 viewBox="0 0 512.008 512.008" style="enable-background:new 0 0 512.008 512.008;" xml:space="preserve">
<circle style="fill:#3A99D7;" cx="256.004" cy="256.004" r="256.004"/>
<path style="fill:#2682BF;" d="M505.21,314.752l-50.912-50.912l-30.631,30.631l-342.06,37.802l179.655,179.654
	C380.089,509.53,479.043,426.17,505.21,314.752z"/>
<path style="fill:#E84F4F;" d="M213.494,203.884c-3.755,5.312-8.228,10.645-11.534,16.993l129.714-0.011
	c-1.299-2.561-12.268-16.249-14.152-17.781c1.54-4.934,1.608-4.654,0.298-9.628l-100.953-1.154c-8.243,0-9.11,7.653-3.373,11.577
	L213.494,203.884L213.494,203.884z"/>
<path style="fill:#E7F1F5;" d="M111.857,228.631c-2.676,6.686-15.299,33.71-20.586,35.213H57.698
	c4.568,13.497,20.946,65.284,23.91,68.437h328.479c3.251-3.301,14.393-26.966,16.702-32.63l6.488,0.004l0.025-0.047l0,0
	l20.993-35.76c-10.325,0-57.806,2.334-63.525-2.629c-9.243-8.023-29.502-28.257-40.158-32.019c1.493-2.917,2.442-4.302,1.604-8.548
	c-1.651-0.661-3.517-1.256-5.891-1.256H106.725c-3.788,0-6.776,0.827-6.114,6.373c1.554,4.115,6.679,2.866,11.239,2.866
	L111.857,228.631z"/>
<path style="fill:#E84F4F;" d="M69.476,299.604c0.78,2.341,1.561,4.665,2.331,6.931h351.925c1.389-3.003,2.496-5.492,3.064-6.887
	l6.488,0.004l0.025-0.047H69.48h-0.004V299.604z"/>
<path style="fill:#4FB5F5;" d="M143.725,267.394c4.503,0,8.153,3.637,8.153,8.121c0,4.485-3.65,8.121-8.153,8.121
	s-8.153-3.636-8.153-8.121C135.572,271.03,139.223,267.394,143.725,267.394z M342.369,267.394c4.503,0,8.153,3.637,8.153,8.121
	c0,4.485-3.65,8.121-8.153,8.121c-4.507,0-8.153-3.636-8.153-8.121C334.216,271.03,337.866,267.394,342.369,267.394z
	 M320.035,267.394c4.503,0,8.153,3.637,8.153,8.121c0,4.485-3.65,8.121-8.153,8.121s-8.153-3.636-8.153-8.121
	C311.882,271.03,315.532,267.394,320.035,267.394z M297.701,267.394c4.507,0,8.153,3.637,8.153,8.121
	c0,4.485-3.65,8.121-8.153,8.121s-8.153-3.636-8.153-8.121C289.548,271.03,293.198,267.394,297.701,267.394z M210.717,267.394
	c4.507,0,8.153,3.637,8.153,8.121c0,4.485-3.65,8.121-8.153,8.121s-8.153-3.636-8.153-8.121
	C202.563,271.03,206.214,267.394,210.717,267.394z M188.387,267.394c4.503,0,8.153,3.637,8.153,8.121
	c0,4.485-3.65,8.121-8.153,8.121c-4.507,0-8.156-3.636-8.156-8.121C180.23,271.03,183.88,267.394,188.387,267.394z M166.052,267.394
	c4.503,0,8.153,3.637,8.153,8.121c0,4.485-3.65,8.121-8.153,8.121c-4.507,0-8.153-3.636-8.153-8.121
	C157.899,271.03,161.55,267.394,166.052,267.394z"/>
<path style="fill:#DDECF0;" d="M111.857,228.631c-2.726,6.593-12.411,27.294-18.216,33.455h298.751
	c-0.697-0.266-1.247-0.55-1.619-0.874c-9.189-7.977-29.265-28.023-39.974-31.951l-238.946-0.629L111.857,228.631L111.857,228.631z"
	/>
<path style="fill:#6AC9FC;" d="M118.64,235.612h4.251c0.935,0,1.698,0.687,1.698,1.525v6.55c0,0.841-0.762,1.525-1.698,1.525h-4.251
	c-0.931,0-1.698-0.683-1.698-1.525v-6.55C116.942,236.299,117.709,235.612,118.64,235.612z M341.56,235.612h4.251
	c0.935,0,1.698,0.687,1.698,1.525v6.55c0,0.841-0.762,1.525-1.698,1.525h-4.251c-0.935,0-1.698-0.683-1.698-1.525v-6.55
	C339.862,236.299,340.625,235.612,341.56,235.612z M328.303,235.612h4.251c0.931,0,1.698,0.687,1.698,1.525v6.55
	c0,0.841-0.766,1.525-1.698,1.525h-4.251c-0.935,0-1.701-0.683-1.701-1.525v-6.55C326.603,236.299,327.368,235.612,328.303,235.612z
	 M315.043,235.612h4.251c0.935,0,1.701,0.687,1.701,1.525v6.55c0,0.841-0.766,1.525-1.701,1.525h-4.251
	c-0.931,0-1.698-0.683-1.698-1.525v-6.55C313.346,236.299,314.112,235.612,315.043,235.612z M301.787,235.612h4.251
	c0.931,0,1.698,0.687,1.698,1.525v6.55c0,0.841-0.766,1.525-1.698,1.525h-4.251c-0.935,0-1.698-0.683-1.698-1.525v-6.55
	C300.089,236.299,300.851,235.612,301.787,235.612z M288.53,235.612h4.248c0.935,0,1.701,0.687,1.701,1.525v6.55
	c0,0.841-0.766,1.525-1.701,1.525h-4.248c-0.935,0-1.701-0.683-1.701-1.525v-6.55C286.83,236.299,287.595,235.612,288.53,235.612z
	 M275.27,235.612h4.251c0.935,0,1.698,0.687,1.698,1.525v6.55c0,0.841-0.762,1.525-1.698,1.525h-4.251
	c-0.935,0-1.698-0.683-1.698-1.525v-6.55C273.572,236.299,274.334,235.612,275.27,235.612z M262.013,235.612h4.248
	c0.935,0,1.701,0.687,1.701,1.525v6.55c0,0.841-0.766,1.525-1.701,1.525h-4.248c-0.935,0-1.701-0.683-1.701-1.525v-6.55
	C260.313,236.299,261.078,235.612,262.013,235.612z M248.753,235.612h4.251c0.935,0,1.698,0.687,1.698,1.525v6.55
	c0,0.841-0.762,1.525-1.698,1.525h-4.251c-0.931,0-1.698-0.683-1.698-1.525v-6.55C247.055,236.299,247.822,235.612,248.753,235.612z
	 M211.433,235.612h4.251c0.935,0,1.698,0.687,1.698,1.525v6.55c0,0.841-0.762,1.525-1.698,1.525h-4.251
	c-0.935,0-1.698-0.683-1.698-1.525v-6.55C209.735,236.299,210.498,235.612,211.433,235.612z M198.176,235.612h4.251
	c0.931,0,1.698,0.687,1.698,1.525v6.55c0,0.841-0.766,1.525-1.698,1.525h-4.251c-0.935,0-1.701-0.683-1.701-1.525v-6.55
	C196.475,236.299,197.241,235.612,198.176,235.612z M184.916,235.612h4.251c0.935,0,1.701,0.687,1.701,1.525v6.55
	c0,0.841-0.766,1.525-1.701,1.525h-4.251c-0.931,0-1.698-0.683-1.698-1.525v-6.55C183.218,236.299,183.985,235.612,184.916,235.612z
	 M171.66,235.612h4.251c0.931,0,1.698,0.687,1.698,1.525v6.55c0,0.841-0.766,1.525-1.698,1.525h-4.251
	c-0.935,0-1.698-0.683-1.698-1.525v-6.55C169.962,236.299,170.724,235.612,171.66,235.612z M158.402,235.612h4.248
	c0.935,0,1.701,0.687,1.701,1.525v6.55c0,0.841-0.766,1.525-1.701,1.525h-4.248c-0.935,0-1.701-0.683-1.701-1.525v-6.55
	C156.702,236.299,157.468,235.612,158.402,235.612z M145.143,235.612h4.251c0.935,0,1.698,0.687,1.698,1.525v6.55
	c0,0.841-0.762,1.525-1.698,1.525h-4.251c-0.935,0-1.698-0.683-1.698-1.525v-6.55C143.445,236.299,144.208,235.612,145.143,235.612z
	 M131.886,235.612h4.248c0.935,0,1.701,0.687,1.701,1.525v6.55c0,0.841-0.766,1.525-1.701,1.525h-4.248
	c-0.935,0-1.701-0.683-1.701-1.525v-6.55C130.185,236.299,130.951,235.612,131.886,235.612z"/>
<path style="fill:#E84F4F;" d="M392.094,262.085c-0.741-0.259-0.927-0.55-1.32-0.874c-0.978-0.798-1.949-1.784-3.139-2.798
	l-291.184,0.068c-0.985,1.313-1.967,2.503-2.952,3.603h298.595V262.085z"/>
<g>
	<path style="fill:#E7F1F5;" d="M213.494,203.884l-1.443,1.996h108.056c-1.204-1.403-2.147-2.431-2.589-2.794l0.09-0.288H212.163
		c0.392,0.385,0.838,0.748,1.328,1.086H213.494z"/>
	<path style="fill:#E7F1F5;" d="M231.778,148.93h23.838l4.87,43.82h-33.574l4.87-43.82H231.778z"/>
</g>
<rect x="235.005" y="142.478" style="fill:#E84F4F;" width="17.389" height="6.449"/>
<path style="fill:#E7F1F5;" d="M269.638,158.867h18.428l3.762,33.879h-25.96l3.766-33.879H269.638z"/>
<rect x="272.131" y="153.883" style="fill:#E84F4F;" width="13.447" height="4.985"/>
<g>
</g>
<g>
</g>
<g>
</g>
<g>
</g>
<g>
</g>
<g>
</g>
<g>
</g>
<g>
</g>
<g>
</g>
<g>
</g>
<g>
</g>
<g>
</g>
<g>
</g>
<g>
</g>
<g>
</g>
</svg>
