<?xml version="1.0" encoding="iso-8859-1"?>
<!-- Generator: Adobe Illustrator 19.0.0, SVG Export Plug-In . SVG Version: 6.00 Build 0)  -->
<svg version="1.1" id="Layer_1" xmlns="http://www.w3.org/2000/svg" xmlns:xlink="http://www.w3.org/1999/xlink" x="0px" y="0px"
	 viewBox="0 0 504 504" style="enable-background:new 0 0 504 504;" xml:space="preserve">
<circle style="fill:#FD8469;" cx="252" cy="252" r="252"/>
<path style="fill:#E6E9EE;" d="M178.7,325.6c-5.3,0-9.7-4.3-9.7-9.7V143.1l-51.2-16.8c-2.4-0.8-4.4-2.6-5.5-4.9s-1.3-5-0.4-7.4
	c1.4-3.9,5-6.5,9.1-6.5c1.1,0,2.2,0.2,3.2,0.6l57.6,19.1c3.8,1.4,6.4,5,6.4,9.1v169.9h194.5c5.3,0,9.7,4.3,9.7,9.7
	c0,5.3-4.3,9.7-9.7,9.7L178.7,325.6L178.7,325.6z"/>
<g>
	<circle style="fill:#324A5E;" cx="229.6" cy="368.5" r="28"/>
	<circle style="fill:#324A5E;" cx="338.4" cy="368.5" r="28"/>
</g>
<path style="fill:#84DBFF;" d="M368.3,164.3H213.9c-6.6,0-11.9,5.3-11.9,11.9v104.3c0,6.6,5.3,11.9,11.9,11.9h154.5
	c6.6,0,11.9-5.3,11.9-11.9V176.2C380.3,169.6,374.9,164.3,368.3,164.3z"/>
<path style="fill:#324A5E;" d="M325,164.3h-13.9v-13.7h-40v13.7h-13.9v-16c0-6.4,5.2-11.6,11.6-11.6h44.7c6.4,0,11.6,5.2,11.6,11.6
	v16H325z"/>
<g>
	<rect x="336.4" y="164.2" style="fill:#FFD05B;" width="17.5" height="128.1"/>
	<rect x="228.2" y="164.2" style="fill:#FFD05B;" width="17.5" height="128.1"/>
</g>
<g>
</g>
<g>
</g>
<g>
</g>
<g>
</g>
<g>
</g>
<g>
</g>
<g>
</g>
<g>
</g>
<g>
</g>
<g>
</g>
<g>
</g>
<g>
</g>
<g>
</g>
<g>
</g>
<g>
</g>
</svg>
