<?xml version="1.0" encoding="iso-8859-1"?>
<!-- Generator: Adobe Illustrator 19.0.0, SVG Export Plug-In . SVG Version: 6.00 Build 0)  -->
<svg version="1.1" id="Layer_1" xmlns="http://www.w3.org/2000/svg" xmlns:xlink="http://www.w3.org/1999/xlink" x="0px" y="0px"
	 viewBox="0 0 511.991 511.991" style="enable-background:new 0 0 511.991 511.991;" xml:space="preserve">
<circle style="fill:#00CC96;" cx="255.995" cy="255.995" r="255.995"/>
<path style="fill:#07B587;" d="M508.406,299.124L324.28,114.998l-135.082,6.131l88.363,87.518l-3.382,6.976l-52.003-51.58
	c-51.792-6.765-56.654,13.741-49.044,49.044l68.281,67.858L178.84,405.879l104.429,104.429
	c114.365-12.05,206.111-99.356,225.348-211.395L508.406,299.124z"/>
<path style="fill:#CCCCCC;" d="M328.932,273.546c17.757,4.651,36.571,12.472,51.58,25.156c14.375,11.838,27.27,29.806,27.27,53.272
	c0,31.075-21.985,51.792-41.433,63.207c-26.425,15.432-58.556,21.351-87.306,21.351c-28.75,0-60.882-5.919-87.306-21.351
	c-19.448-11.416-41.433-32.132-41.433-63.207c0-7.399,1.269-14.375,3.382-20.505c-24.524-2.96-58.347-13.107-58.347-42.914
	c0-38.474,56.442-44.181,76.526-44.181c15.432,0,52.426,3.382,68.703,22.196c10.147-13.317,29.595-17.546,42.067-17.546
	c10.358,0,21.562,2.325,31.075,8.033c6.131,3.593,11.627,9.09,15.009,16.489H328.932z"/>
<path style="fill:#FBFBFB;" d="M328.932,268.473c17.757,4.651,36.571,12.261,51.58,24.31c14.375,11.416,27.27,28.961,27.27,51.792
	c0,30.229-21.985,50.312-41.433,61.516c-26.425,15.009-58.556,20.717-87.306,20.717c-28.75,0-60.882-5.707-87.306-20.717
	c-19.448-10.993-41.433-31.287-41.433-61.516c0-7.187,1.269-13.952,3.382-20.082c-24.524-2.96-58.347-12.896-58.347-41.857
	c0-37.417,56.442-42.914,76.526-42.914c15.432,0,52.426,3.171,68.703,21.562c10.147-12.895,29.595-17.123,42.067-17.123
	c10.358,0,21.562,2.114,31.075,7.821c6.131,3.593,11.627,8.879,15.009,16.066L328.932,268.473z"/>
<path style="fill:#00C1FF;" d="M319.208,277.562c44.393,9.724,75.891,34.88,75.891,64.264c0,37.84-52.003,68.492-116.268,68.492
	s-116.268-30.653-116.268-68.492c0-13.317,6.342-25.791,17.546-36.149c-2.748,0.211-5.496,0.211-8.244,0.211
	c-35.515,0-64.052-12.472-64.052-27.905c0-15.432,28.75-27.904,64.052-27.904c35.515,0,64.052,12.472,64.052,27.904l0,0
	c3.382-0.845,6.554-1.48,10.147-2.114c0.845-11.838,16.912-21.14,36.36-21.14c20.082,0,36.571,9.935,36.571,22.196v0.423
	L319.208,277.562z"/>
<path style="fill:#00CFFF;" d="M387.911,317.939c4.651,7.399,7.187,15.432,7.187,23.888c0,37.84-52.003,68.492-116.268,68.492
	s-116.268-30.653-116.268-68.492c0-13.317,6.342-25.791,17.546-36.149c-2.748,0.211-5.496,0.211-8.244,0.211
	c-35.515,0-64.052-12.472-64.052-27.905c0-4.017,1.903-7.821,5.496-11.204L387.911,317.939z"/>
<path style="fill:#FFFFFF;" d="M312.443,198.712L312.443,198.712c3.806,0,7.187,1.691,9.935,4.228
	c2.114-1.057,4.228-1.691,6.554-1.691l0,0c6.765,0,12.472,5.073,15.432,12.261h-5.073c-2.325-4.017-6.131-6.765-10.358-6.765l0,0
	c-1.057,0-2.114,0.211-2.959,0.423c1.057,1.903,1.903,4.017,2.537,6.131h-4.651c-0.634-1.48-1.269-2.748-2.114-3.806
	c-3.593,3.171-6.13,8.455-6.13,14.586v48.41h-4.228v-11.204l-12.05-2.114v9.513h-4.228v-47.564c0-12.472,7.821-22.83,17.123-22.83
	L312.443,198.712z M318.361,206.111c-1.691-1.269-3.806-1.903-5.919-1.903l0,0c-7.187,0-12.895,7.821-12.895,17.123v15.22
	l12.05,2.114V224.29C311.596,216.891,314.345,210.339,318.361,206.111z M299.547,242.048v12.261l12.05,2.114v-12.261
	L299.547,242.048z"/>
<path style="fill:#F3F3F3;" d="M198.923,152.416c19.237,0,34.669,15.643,34.669,34.669c0,19.237-15.643,34.669-34.669,34.669
	c-19.237,0-34.669-15.643-34.669-34.669C164.255,167.848,179.897,152.416,198.923,152.416z M198.923,171.231
	c8.879,0,15.855,7.187,15.855,15.855c0,8.879-7.187,15.855-15.855,15.855c-8.668,0-15.855-7.187-15.855-15.855
	S190.255,171.231,198.923,171.231z"/>
<path style="fill:#E6E6E6;" d="M198.923,162.563c13.53,0,24.522,10.993,24.522,24.522s-10.993,24.522-24.522,24.522
	c-13.53,0-24.522-10.993-24.522-24.522S185.393,162.563,198.923,162.563z M198.923,171.231c8.879,0,15.855,7.187,15.855,15.855
	c0,8.879-7.187,15.855-15.855,15.855c-8.668,0-15.855-7.187-15.855-15.855S190.255,171.231,198.923,171.231z"/>
<path style="fill:#E84F4F;" d="M193.216,151.57h11.204c2.114,0,4.228,1.691,3.806,3.806l-1.903,14.164
	c-0.211,2.114-1.691,3.806-3.806,3.806h-7.399c-2.114,0-3.593-1.691-3.806-3.806l-1.903-14.164
	C189.199,153.262,191.102,151.57,193.216,151.57z"/>
<path style="fill:#C94545;" d="M207.167,164.043l-0.845,5.496c-0.211,2.114-1.691,3.806-3.806,3.806h-7.399
	c-2.114,0-3.593-1.691-3.806-3.806l-0.845-5.496c2.537-0.845,5.496-1.48,8.244-1.48c2.959,0,5.707,0.423,8.244,1.48H207.167z"/>
<path style="fill:#E84F4F;" d="M163.408,192.792v-11.204c0-2.114,1.691-4.228,3.806-3.806l14.164,1.903
	c2.114,0.211,3.806,1.691,3.806,3.806v7.399c0,2.114-1.691,3.593-3.806,3.806l-14.164,1.903
	C165.1,196.809,163.408,194.906,163.408,192.792z"/>
<path style="fill:#C94545;" d="M175.669,178.841l5.496,0.845c2.114,0.211,3.806,1.691,3.806,3.806v7.399
	c0,2.114-1.691,3.593-3.806,3.806l-5.496,0.845c-0.845-2.537-1.48-5.496-1.48-8.244c0-2.959,0.423-5.707,1.48-8.244V178.841z"/>
<path style="fill:#E84F4F;" d="M204.419,222.6h-11.204c-2.114,0-4.228-1.691-3.806-3.806l1.903-14.164
	c0.211-2.114,1.691-3.806,3.806-3.806h7.399c2.114,0,3.593,1.691,3.806,3.806l1.903,14.164
	C208.436,220.908,206.533,222.6,204.419,222.6z"/>
<path style="fill:#C94545;" d="M190.467,210.127l0.845-5.496c0.211-2.114,1.691-3.806,3.806-3.806h7.399
	c2.114,0,3.593,1.691,3.806,3.806l0.845,5.496c-2.537,0.845-5.496,1.48-8.244,1.48c-2.959,0-5.707-0.423-8.244-1.48H190.467z"/>
<path style="fill:#E84F4F;" d="M234.438,181.589v11.204c0,2.114-1.691,4.228-3.806,3.806l-14.164-1.903
	c-2.114-0.211-3.806-1.691-3.806-3.806v-7.399c0-2.114,1.691-3.593,3.806-3.806l14.164-1.903
	C232.746,177.572,234.438,179.475,234.438,181.589z"/>
<path style="fill:#C94545;" d="M221.965,195.541l-5.496-0.845c-2.114-0.211-3.806-1.691-3.806-3.806v-7.399
	c0-2.114,1.691-3.593,3.806-3.806l5.496-0.845c0.845,2.537,1.48,5.496,1.48,8.244c0,2.959-0.423,5.707-1.48,8.244V195.541z"/>
<path style="fill:#E6E6E6;" d="M253.463,119.649h4.862v107.389c-1.48,1.057-3.171,1.057-4.862,0V119.649z"/>
<path style="fill:#E84F4F;" d="M229.576,130.643l25.367-53.272l25.367,53.272H229.576z"/>
<path style="fill:#D14747;" d="M254.943,77.371l25.367,53.272h-25.367L254.943,77.371L254.943,77.371z"/>
<path style="fill:#E84F4F;" d="M254.943,77.371c0,0-27.481,0.845-44.393,12.683s-24.944,25.156-24.944,25.156l16.278,7.399
	l53.06-45.028L254.943,77.371L254.943,77.371z"/>
<path style="fill:#FFFFFF;" d="M254.943,77.371c-25.791,11.627-44.181,29.173-53.06,45.028l27.481,8.244l25.367-53.272
	C254.732,77.371,254.943,77.371,254.943,77.371z"/>
<path style="fill:#D14747;" d="M254.943,77.371c0,0,27.692,0.845,44.393,12.683c16.912,11.838,24.944,25.156,24.944,25.156
	l-16.278,7.399l-53.06-45.028V77.371z"/>
<path style="fill:#EBECEC;" d="M254.943,77.371c25.791,11.627,44.181,29.173,53.06,45.028l-27.481,8.244l-25.367-53.272
	C255.154,77.371,254.943,77.371,254.943,77.371z"/>
<path style="fill:#FFFFFF;" d="M185.817,114.999c-0.634,4.017,7.187,11.627,16.278,7.399L185.817,114.999z"/>
<path style="fill:#E84F4F;" d="M202.094,122.398c0.845,4.862,16.7,13.106,27.481,8.244L202.094,122.398z"/>
<path style="fill:#FFFFFF;" d="M229.576,130.643c0,0,8.033,5.285,26.213,4.862c18.18-0.423,24.733-4.862,24.733-4.862h-50.735
	H229.576z"/>
<path style="fill:#EBECEC;" d="M254.943,135.716h0.845c18.18-0.423,24.733-4.862,24.733-4.862h-25.367v4.862H254.943z"/>
<path style="fill:#D14747;" d="M308.003,122.398c-0.845,4.862-16.7,13.106-27.481,8.244L308.003,122.398z"/>
<g>
	<path style="fill:#FFFFFF;" d="M324.281,114.999c0.634,4.017-7.187,11.627-16.278,7.399L324.281,114.999z"/>
	<path style="fill:#FFFFFF;" d="M254.943,70.395c1.057,0,1.903,7.399,1.903,7.399c-0.634,0.423-2.959,0.634-3.593,0
		c0,0,0.845-7.399,1.903-7.399H254.943z"/>
</g>
<g>
</g>
<g>
</g>
<g>
</g>
<g>
</g>
<g>
</g>
<g>
</g>
<g>
</g>
<g>
</g>
<g>
</g>
<g>
</g>
<g>
</g>
<g>
</g>
<g>
</g>
<g>
</g>
<g>
</g>
</svg>
