<?xml version="1.0" encoding="iso-8859-1"?>
<!-- Generator: Adobe Illustrator 19.0.0, SVG Export Plug-In . SVG Version: 6.00 Build 0)  -->
<svg version="1.1" id="Layer_1" xmlns="http://www.w3.org/2000/svg" xmlns:xlink="http://www.w3.org/1999/xlink" x="0px" y="0px"
	 viewBox="0 0 504 504" style="enable-background:new 0 0 504 504;" xml:space="preserve">
<circle style="fill:#FFD05B;" cx="252" cy="252" r="252"/>
<rect x="172" y="79.9" style="fill:#324A5E;" width="19.1" height="310.1"/>
<path style="fill:#FF7058;" d="M191.5,100.2V390h143.4C334.9,390,339.4,158.9,191.5,100.2z"/>
<rect x="140.7" y="390.7" style="fill:#324A5E;" width="233.8" height="18.9"/>
<g>
	<path style="fill:#84DBFF;" d="M211.2,132.4V173H254C242.2,157.4,228.1,143.4,211.2,132.4z"/>
	<path style="fill:#84DBFF;" d="M211.2,370.3h103.5c-0.5-10.4-1.6-24.5-3.8-40.6h-99.7L211.2,370.3L211.2,370.3z"/>
	<path style="fill:#84DBFF;" d="M211.2,306.9h96.1c-2.5-14-5.9-29-10.3-44.2h-85.8V306.9z"/>
	<path style="fill:#84DBFF;" d="M211.2,195.8V240h78.3c-5.5-15.1-12.2-30-20.4-44.2H211.2z"/>
</g>
<g>
</g>
<g>
</g>
<g>
</g>
<g>
</g>
<g>
</g>
<g>
</g>
<g>
</g>
<g>
</g>
<g>
</g>
<g>
</g>
<g>
</g>
<g>
</g>
<g>
</g>
<g>
</g>
<g>
</g>
</svg>
