<?xml version="1.0" encoding="iso-8859-1"?>
<!-- Generator: Adobe Illustrator 19.0.0, SVG Export Plug-In . SVG Version: 6.00 Build 0)  -->
<svg version="1.1" id="Layer_1" xmlns="http://www.w3.org/2000/svg" xmlns:xlink="http://www.w3.org/1999/xlink" x="0px" y="0px"
	 viewBox="0 0 504 504" style="enable-background:new 0 0 504 504;" xml:space="preserve">
<circle style="fill:#E84F4F;" cx="252" cy="252" r="252"/>
<g>
	<circle style="fill:#FFD05B;" cx="227.2" cy="124.3" r="27"/>
	<polygon style="fill:#FFD05B;" points="227.2,79.3 220.3,92.6 234.1,92.6 	"/>
	<polygon style="fill:#FFD05B;" points="227.2,169.2 220.3,155.9 234.1,155.9 	"/>
	<polygon style="fill:#FFD05B;" points="272.2,124.3 258.8,117.3 258.8,131.2 	"/>
	<polygon style="fill:#FFD05B;" points="182.2,124.3 195.6,117.3 195.6,131.2 	"/>
	<polygon style="fill:#FFD05B;" points="259,92.4 244.7,97 254.4,106.8 	"/>
	<polygon style="fill:#FFD05B;" points="195.4,156.1 199.9,141.7 209.7,151.5 	"/>
	<polygon style="fill:#FFD05B;" points="259,156.1 254.4,141.7 244.7,151.5 	"/>
	<polygon style="fill:#FFD05B;" points="195.4,92.4 209.7,97 199.9,106.8 	"/>
</g>
<polyline style="fill:#4CDBC4;" points="90.7,358.9 171.9,186.1 248.1,358.9 322.7,124.3 413.3,358.9 "/>
<g>
	<polygon style="fill:#FFFFFF;" points="322.7,124.3 295.6,209.5 312.5,194.8 324.7,216.6 336,193.9 354.4,206.3 	"/>
	<polygon style="fill:#FFFFFF;" points="171.9,186.1 132.6,269.7 154,254.6 170.5,279 187.2,253.6 207.5,266.9 	"/>
</g>
<g>
</g>
<g>
</g>
<g>
</g>
<g>
</g>
<g>
</g>
<g>
</g>
<g>
</g>
<g>
</g>
<g>
</g>
<g>
</g>
<g>
</g>
<g>
</g>
<g>
</g>
<g>
</g>
<g>
</g>
</svg>
